<svg width="219" height="97" viewBox="0 0 219 97" fill="none" xmlns="http://www.w3.org/2000/svg">
<path d="M111.851 56.1326C111.851 58.4523 111.434 60.2498 110.601 61.5253C109.798 62.7559 108.687 63.3713 107.269 63.3713C105.528 63.3713 104.282 62.4837 103.532 60.7086C102.639 62.0735 101.656 62.7559 100.583 62.7559C99.1494 62.7559 97.9491 61.9803 96.9809 60.4289C95.9527 58.7805 95.4387 56.6062 95.4387 53.9061C95.4387 50.1916 95.9904 48.3344 97.0931 48.3344C97.3858 48.3344 97.6448 48.4463 97.8699 48.6701C98.0951 48.8864 98.2081 49.1437 98.2081 49.442C98.2081 49.3898 98.1251 49.8747 97.9599 50.8965C97.8023 51.9184 97.7239 52.985 97.7239 54.0963C97.7239 55.9312 98.0236 57.4304 98.6245 58.594C99.1793 59.6681 99.8471 60.2051 100.628 60.2051C101.176 60.2051 101.644 59.8993 102.035 59.2876C102.433 58.6686 102.632 57.8668 102.632 56.8822C102.632 56.3526 102.579 55.6291 102.474 54.7117C102.376 53.7942 102.328 53.1453 102.328 52.7649C102.328 51.758 102.744 51.2545 103.577 51.2545C104.425 51.2545 104.849 51.7953 104.849 52.8768C104.849 53.0409 104.842 53.3243 104.826 53.7272C104.819 54.1299 104.815 54.4431 104.815 54.6669C104.815 56.7853 104.864 58.1241 104.962 58.6835C105.254 60.3691 105.974 61.212 107.123 61.212C107.873 61.212 108.47 60.8279 108.912 60.0597C109.362 59.2839 109.588 58.195 109.588 56.7927C109.588 55.2039 109.419 53.6153 109.081 52.0265C108.744 50.4303 108.575 49.5987 108.575 49.5316C108.575 48.9348 108.89 48.6365 109.52 48.6365C110.233 48.6365 110.796 49.2742 111.209 50.5497C111.636 51.8774 111.851 53.7383 111.851 56.1326ZM117.546 46.4324C117.546 47.4916 117.024 48.0211 115.982 48.0211C115.561 48.0211 115.205 47.8757 114.912 47.5848C114.627 47.2939 114.484 46.9433 114.484 46.5331C114.484 46.0856 114.642 45.7052 114.957 45.392C115.272 45.0786 115.659 44.922 116.116 44.922C116.544 44.922 116.889 45.06 117.152 45.336C117.415 45.612 117.546 45.9775 117.546 46.4324ZM117.062 50.6951C117.062 55.1928 116.901 58.5157 116.578 60.6638C116.45 61.529 116.307 62.1108 116.15 62.4091C115.948 62.8044 115.621 63.0021 115.171 63.0021C114.87 63.0021 114.615 62.9052 114.406 62.7112C114.195 62.5099 114.091 62.2712 114.091 61.9951C114.091 62.0325 114.15 61.7752 114.27 61.2232C114.413 60.5967 114.529 59.8844 114.619 59.0863C114.739 57.9525 114.799 56.6845 114.799 55.2823C114.799 54.6706 114.792 54.0255 114.777 53.3467C114.762 52.6679 114.754 52.2987 114.754 52.2391C114.754 51.2321 114.841 50.531 115.013 50.1357C115.193 49.7031 115.531 49.4868 116.026 49.4868C116.717 49.4868 117.062 49.8895 117.062 50.6951ZM129.838 52.9664C129.838 53.2274 129.755 53.4511 129.59 53.6376C129.425 53.8166 129.23 53.9061 129.005 53.9061C128.892 53.9061 128.461 53.7607 127.71 53.4698C126.967 53.1789 126.239 53.0334 125.526 53.0334C125.301 53.0334 125.065 53.0484 124.818 53.0782C124.54 54.294 124.401 55.4091 124.401 56.4234C124.401 57.7287 124.623 58.732 125.065 59.4331C125.508 60.1342 126.123 60.4848 126.911 60.4848C127.151 60.4848 127.466 60.4102 127.857 60.261C128.254 60.1044 128.539 60.026 128.712 60.026C129.312 60.026 129.613 60.3766 129.613 61.0778C129.613 61.5327 129.365 61.902 128.87 62.1854C128.374 62.4688 127.699 62.6105 126.843 62.6105C123.662 62.6105 122.071 60.5034 122.071 56.2892C122.071 55.4016 122.18 54.4245 122.397 53.3579C122.187 53.3877 121.733 53.4735 121.036 53.6153C120.578 53.7048 120.24 53.7495 120.022 53.7495C119.219 53.7495 118.818 53.4437 118.818 52.8321C118.818 51.9967 120.203 51.4522 122.971 51.1986C123.541 49.401 124.24 48.5022 125.065 48.5022C125.32 48.5022 125.538 48.5955 125.718 48.7819C125.898 48.9609 125.988 49.181 125.988 49.442C125.988 49.636 125.932 49.8821 125.819 50.1805C125.707 50.4714 125.594 50.766 125.482 51.0643C128.385 51.1613 129.838 51.7953 129.838 52.9664ZM142.951 57.0052C142.951 59.1385 142.745 60.8465 142.332 62.1294C141.942 63.3527 141.45 63.9643 140.858 63.9643C140.52 63.9643 140.235 63.8599 140.002 63.651C139.77 63.4496 139.653 63.2184 139.653 62.9574C139.653 62.9574 139.83 62.3047 140.182 60.9994C140.535 59.6867 140.711 58.3553 140.711 57.0052C140.711 54.984 140.478 53.5145 140.013 52.5971C139.533 51.6498 138.752 51.1762 137.672 51.1762C137.102 51.1762 136.52 51.3142 135.928 51.5902C135.334 51.8661 134.876 52.2018 134.554 52.5971C134.156 53.0969 133.957 53.8539 133.957 54.8683V55.5844C133.957 57.4863 134.029 59.3324 134.171 61.1225C134.322 62.9052 134.396 63.7368 134.396 63.6175C134.396 64.3559 134.051 64.7251 133.361 64.7251C132.963 64.7251 132.682 64.602 132.517 64.3559C132.374 64.147 132.254 63.7256 132.156 63.0916C131.901 61.3537 131.773 59.0415 131.773 56.155C131.773 53.6264 132.055 50.7325 132.618 47.4729C132.746 46.7643 132.865 46.3019 132.978 46.0856C133.15 45.7723 133.432 45.6157 133.822 45.6157C134.107 45.6157 134.348 45.7201 134.543 45.929C134.738 46.1378 134.836 46.4063 134.836 46.7345C134.836 46.7196 134.644 47.9727 134.262 50.4938C135.252 49.5763 136.456 49.1176 137.875 49.1176C141.259 49.1176 142.951 51.7468 142.951 57.0052Z" fill="black"/>
<path d="M77.2156 40.5109C73.8979 46.0218 68.7222 51.6378 62.2617 51.4092C60.7543 53.9706 59.1519 57.4933 57.3743 61.5784L52.5855 63.5846C56.0019 55.0844 60.7287 45.5864 66.0832 38.2107C63.6377 40.13 59.7103 44.1497 56.3669 48.3074C52.3592 41.6755 55.272 34.9166 59.9184 29.5182C59.9951 31.8437 61.2288 33.8572 62.1121 34.8694C61.7945 32.9466 61.6959 29.4674 62.8238 26.3401C65.4445 23.6844 67.8024 21.729 70.5363 19.9549C70.2333 21.689 70.8282 23.6772 71.4925 24.8926C71.5801 23.1149 72.3101 19.7046 73.3942 18.2171C76.7668 15.5796 81.906 13.2359 87.6 12.7933C87.3042 16.3233 86.0086 22.1353 83.8624 25.8684C81.9828 27.3341 79.4056 28.3355 77.3254 28.8906C79.1243 29.2134 81.0884 29.1699 82.7782 28.8869C81.7969 31.5825 80.7634 34.0676 79.1358 37.1441C76.6573 38.842 73.376 39.7998 71.0947 40.1372C72.7737 40.8156 75.7375 41.026 77.2156 40.5109ZM26.6961 54.3153L29.0504 57.1487L46.4718 47.0231L44.0336 44.2368L26.6961 54.3153ZM52.1001 53.4518L49.6619 50.6691L32.1236 60.8564L34.4779 63.6899L52.1001 53.4518ZM69.1784 53.4772C67.6418 54.2137 66.0723 54.7143 64.4845 54.9211C64.0465 55.7592 63.5867 56.7133 63.1085 57.7255L64.1962 58.9663C66.4701 61.4768 65.8715 65.1483 62.8238 67.0892C60.0023 68.8924 43.3292 79.3368 39.5149 81.7282C39.2448 79.1123 38.2082 76.6812 36.5 74.6607C34.7881 72.64 14.1802 47.901 9.04101 41.3635C7.3292 39.1867 6.9423 36.8466 7.9643 34.7751C8.9425 32.7833 11.0376 31.4446 13.1838 31.4446C16.5382 31.4446 18.323 33.8209 18.8376 35.8526C19.4216 38.1781 18.7099 40.3186 16.5637 41.9657L21.4146 47.8575L49.87 31.7276C55.0603 27.9146 56.5203 20.8764 53.2645 15.3546C51.0088 11.5344 46.8441 9.16535 42.3947 9.16535C38.0585 9.16535 39.5003 9.1073 7.4825 25.4005C2.9784 27.5446 0 31.8836 0 37.0172C0 40.1735 1.1242 43.3879 3.24485 46.0399C8.4534 52.5484 30.8425 79.3628 31.0433 79.624C32.3974 81.412 32.6018 83.6835 31.5907 85.693C30.5797 87.7071 28.6269 88.9078 26.3749 88.9078C23.0205 88.9078 21.2357 86.5316 20.7211 84.4962C20.1517 82.214 20.7649 80.1136 22.9257 78.4959L18.2646 72.8904C15.2643 75.3029 13.6036 78.3179 13.2386 81.7496C12.3918 89.7494 18.8048 96.2362 26.426 96.2362C28.6014 96.2362 31.2112 95.5939 33.1457 94.3856L67.5542 72.8142C71.0472 70.4052 73 66.3528 73 62.304C73 59.6012 72.124 57.029 70.4888 55.0372L69.1784 53.4772ZM40.223 16.9727C40.9092 16.6571 41.6757 16.4866 42.4458 16.4866C44.3876 16.4866 46.0849 17.506 46.9828 19.2148C48.1216 21.377 47.8077 24.5443 44.9826 26.1514L26.3786 36.629C26.1924 32.6781 24.2652 29.0792 21.0678 26.7174L40.223 16.9727ZM47.877 65.5256L49.1947 62.2423L50.1036 60.0329L37.5147 67.3505L39.869 70.1839L47.877 65.5256Z" fill="black"/>
<g filter="url(#filter0_i)">
<path d="M88.3684 96.2362H91.9224L94.0931 89.8014H105.908L108.098 96.2362H111.652L102.392 68.7402H97.6279L88.3684 96.2362ZM95.1689 86.6126L99.9716 72.3108L104.832 86.6126H95.1689ZM122.928 96.79C125.515 96.79 127.546 96.2232 129.018 95.0905C130.491 93.9579 131.227 92.3921 131.227 90.3933C131.227 89.324 131.003 88.4266 130.555 87.701C130.107 86.9624 129.351 86.3262 128.288 85.7915C127.238 85.2439 125.797 84.7413 123.966 84.2831C122.34 83.876 121.097 83.5132 120.239 83.1947C119.393 82.8762 118.811 82.5394 118.491 82.1827C118.183 81.826 118.029 81.3998 118.029 80.9033C118.029 80.025 118.446 79.3246 119.278 78.8029C120.123 78.2813 121.218 78.0392 122.563 78.0774C123.972 78.1155 125.131 78.4592 126.04 79.1085C126.95 79.7447 127.488 80.6108 127.654 81.7053L131.15 81.0752C130.933 79.2551 130.036 77.7971 128.461 76.7026C126.899 75.5951 124.933 75.0413 122.563 75.0413C120.169 75.0413 118.241 75.5951 116.781 76.7026C115.321 77.7971 114.591 79.2551 114.591 81.0752C114.591 82.0551 114.809 82.8892 115.244 83.5766C115.693 84.264 116.442 84.8689 117.492 85.3905C118.555 85.9122 120.002 86.4155 121.833 86.899C123.524 87.3443 124.785 87.7331 125.618 88.0638C126.463 88.3823 127.02 88.7191 127.289 89.0758C127.558 89.4325 127.692 89.903 127.692 90.4888C127.692 91.4947 127.283 92.2898 126.463 92.8756C125.656 93.4614 124.549 93.7539 123.139 93.7539C121.641 93.7539 120.386 93.4293 119.374 92.7801C118.363 92.1179 117.716 91.2273 117.434 90.1069L113.938 90.6606C114.296 92.5953 115.263 94.1037 116.838 95.186C118.427 96.2553 120.457 96.79 122.928 96.79ZM135.445 96.2362H138.903V85.3715C138.903 82.9785 139.422 81.2027 140.459 80.0441C141.509 78.8854 142.892 78.3065 144.608 78.3065C146.068 78.3065 147.208 78.6693 148.028 79.3949C148.848 80.1205 149.417 81.0622 149.738 82.2209C150.07 83.3795 150.237 84.6077 150.237 85.9061V96.2362H153.695V84.8368C153.695 83.8569 153.574 82.8067 153.33 81.6862C153.099 80.5535 152.677 79.4904 152.062 78.4974C151.46 77.4915 150.621 76.6705 149.545 76.0342C148.483 75.3978 147.112 75.0795 145.434 75.0795C142.412 75.0795 140.107 76.1425 138.519 78.2683V68.7402H135.445V96.2362ZM159.074 71.9671H162.493V68.4537H159.074V71.9671ZM159.074 96.2362H162.493V75.6142H159.074V96.2362ZM168.238 96.2362H171.715V86.3071L181.148 96.2362H185.931L175.692 85.9252L184.855 75.6142H180.418L171.715 85.5433V68.7402H168.257L168.238 96.2362ZM202.424 87.701C203.615 87.701 204.575 87.4085 205.305 86.8226C206.035 86.2368 206.515 85.4539 206.746 84.474C206.977 83.4941 206.944 82.4057 206.65 81.2089H203.403C203.634 81.9856 203.628 82.6471 203.384 83.1947C203.154 83.7423 202.737 84.0157 202.135 84.0157C201.598 84.0157 201.021 83.85 200.407 83.5193C199.792 83.1886 199.139 82.8067 198.447 82.3736C197.755 81.9406 197.039 81.5587 196.295 81.2279C195.552 80.8972 194.778 80.7315 193.971 80.7315C192.805 80.7315 191.858 81.0179 191.128 81.5907C190.398 82.1636 189.911 82.9403 189.668 83.9203C189.437 84.888 189.476 85.9695 189.783 87.1663H193.03C192.812 86.4659 192.799 85.8358 192.991 85.276C193.196 84.7031 193.631 84.4167 194.298 84.4167C194.835 84.4167 195.412 84.5825 196.026 84.9132C196.641 85.2439 197.288 85.6258 197.967 86.0589C198.658 86.4919 199.375 86.8738 200.118 87.2045C200.861 87.5352 201.63 87.701 202.424 87.701Z" fill="black"/>
</g>
<g filter="url(#filter1_i)">
<path d="M120.611 17.903C119.781 12.8315 117.2 10.2652 112.866 10.2041C111.267 10.2041 109.869 10.5707 108.67 11.3039C107.471 12.0372 106.472 13.0148 105.673 14.2368C104.905 15.4589 104.321 16.849 103.921 18.4071C103.552 19.9652 103.368 21.5691 103.368 23.2189C103.368 25.8463 103.737 28.1835 104.475 30.2304C105.243 32.2468 106.349 33.8354 107.794 34.9964C109.239 36.1573 110.991 36.7378 113.05 36.7378C114.987 36.7378 116.908 36.249 118.813 35.2713C120.719 34.2631 122.317 32.8731 123.608 31.1011L125.821 33.1175C124.315 35.1644 122.732 36.7225 121.072 37.7918C119.413 38.8305 117.784 39.5332 116.185 39.8998C114.618 40.2664 113.204 40.4497 111.944 40.4497C109.577 40.4497 107.425 40.0373 105.489 39.2124C103.552 38.357 101.877 37.196 100.463 35.7296C99.0802 34.2326 98.0044 32.5064 97.236 30.5512C96.4983 28.5653 96.1295 26.4268 96.1295 24.1354C96.1295 22.0579 96.4676 19.9957 97.1438 17.9488C97.82 15.9019 98.8189 14.0535 100.141 12.4038C101.493 10.7235 103.184 9.39448 105.212 8.41684C107.241 7.40865 109.592 6.90455 112.266 6.90455C113.465 6.90455 114.771 7.10314 116.185 7.5003C117.63 7.86692 118.982 8.41684 120.243 9.15007L120.058 7.22534H123.608V17.903H120.611ZM139.445 40.4497C137.232 40.4497 135.234 39.9762 133.451 39.0291C131.668 38.082 130.254 36.7378 129.209 34.9964C128.195 33.2244 127.688 31.1469 127.688 28.7639C127.688 26.2282 128.21 24.0132 129.255 22.119C130.331 20.1943 131.745 18.7126 133.497 17.6738C135.28 16.6046 137.216 16.0699 139.306 16.0699C141.519 16.0699 143.502 16.5435 145.254 17.4905C147.006 18.4376 148.389 19.7972 149.403 21.5691C150.418 23.3105 150.925 25.4033 150.925 27.8474C150.925 30.4137 150.433 32.6439 149.449 34.5381C148.466 36.4323 147.113 37.8987 145.392 38.9375C143.671 39.9457 141.688 40.4497 139.445 40.4497ZM139.629 37.196C140.858 37.1655 141.781 36.7378 142.395 35.9129C143.041 35.088 143.486 34.0493 143.732 32.7967C143.978 31.5441 144.101 30.2762 144.101 28.9931C144.101 27.8627 144.009 26.717 143.825 25.556C143.671 24.3951 143.41 23.3411 143.041 22.394C142.672 21.4469 142.165 20.6831 141.519 20.1027C140.905 19.5222 140.136 19.2472 139.214 19.2778C138.015 19.3083 137.062 19.7361 136.356 20.5609C135.679 21.3858 135.188 22.4246 134.88 23.6772C134.604 24.8992 134.465 26.1823 134.465 27.5266C134.465 29.0847 134.634 30.6123 134.972 32.1093C135.31 33.6063 135.848 34.8436 136.586 35.8212C137.354 36.7683 138.369 37.2266 139.629 37.196ZM163.161 40.4497C161.317 40.4497 159.688 39.9762 158.274 39.0291C156.891 38.082 155.8 36.7378 155.001 34.9964C154.232 33.2549 153.848 31.208 153.848 28.8556C153.848 26.3809 154.324 24.1812 155.277 22.2565C156.23 20.3318 157.567 18.8195 159.288 17.7197C161.01 16.6198 163.007 16.0699 165.282 16.0699C166.112 16.0699 166.85 16.1616 167.495 16.3449C168.171 16.4976 168.801 16.6809 169.385 16.8948V13.8702C169.385 13.4425 169.401 12.8315 169.431 12.0372C169.462 11.2428 169.508 10.5096 169.57 9.83747C169.078 9.86802 168.494 9.89857 167.818 9.92912C167.142 9.95967 166.634 9.97495 166.296 9.97495V6.49211C168.448 6.49211 170.092 6.33936 171.23 6.03385C172.367 5.72833 173.089 5.42282 173.397 5.11731H175.886V32.3384C175.886 32.7661 175.871 33.3772 175.84 34.1715C175.809 34.9353 175.763 35.6685 175.702 36.3712C176.224 36.3101 176.778 36.2795 177.362 36.2795C177.946 36.249 178.391 36.2337 178.699 36.2337V39.7165H169.939C169.908 39.3805 169.862 39.0291 169.8 38.6625C169.77 38.2959 169.723 37.9446 169.662 37.6085C168.648 38.6472 167.603 39.3805 166.527 39.8082C165.451 40.2359 164.329 40.4497 163.161 40.4497ZM165.559 36.2795C166.358 36.2795 167.095 36.0809 167.772 35.6838C168.448 35.2561 168.986 34.7214 169.385 34.0798V20.3318C169.078 20.0874 168.617 19.8888 168.002 19.736C167.387 19.5527 166.757 19.4611 166.112 19.4611C164.698 19.4916 163.591 19.9346 162.792 20.7901C161.993 21.6455 161.425 22.7301 161.086 24.0438C160.779 25.3575 160.625 26.7323 160.625 28.1682C160.625 29.4513 160.779 30.7192 161.086 31.9718C161.425 33.2244 161.947 34.2631 162.654 35.088C163.392 35.8823 164.36 36.2795 165.559 36.2795ZM192.655 40.4497C190.411 40.4497 188.428 39.9609 186.707 38.9833C184.986 37.9751 183.649 36.5697 182.696 34.7672C181.743 32.9342 181.267 30.7803 181.267 28.3057C181.267 26.1671 181.743 24.166 182.696 22.3023C183.649 20.4387 184.986 18.9417 186.707 17.8113C188.459 16.6504 190.488 16.0699 192.793 16.0699C194.084 16.0699 195.344 16.2532 196.574 16.6198C197.803 16.9559 198.91 17.5516 199.893 18.4071C200.908 19.2625 201.707 20.4235 202.291 21.8899C202.905 23.3564 203.197 25.1894 203.167 27.3891L188.044 27.6641C188.044 29.3138 188.244 30.7956 188.644 32.1093C189.074 33.423 189.765 34.4617 190.718 35.2255C191.671 35.9893 192.947 36.3712 194.545 36.3712C195.467 36.3712 196.558 36.1268 197.818 35.6379C199.109 35.1186 200.277 34.2173 201.322 32.9342L203.397 34.8589C202.291 36.417 201.107 37.6085 199.847 38.4334C198.587 39.2277 197.327 39.7623 196.066 40.0373C194.837 40.3123 193.7 40.4497 192.655 40.4497ZM188.321 24.4562H196.804C196.773 22.562 196.405 21.2331 195.698 20.4693C194.991 19.6749 194.099 19.2778 193.024 19.2778C191.671 19.2778 190.611 19.7666 189.842 20.7442C189.074 21.6913 188.567 22.9286 188.321 24.4562Z" fill="black"/>
</g>
<defs>
<filter id="filter0_i" x="88.3684" y="68.4537" width="118.529" height="32.3362" filterUnits="userSpaceOnUse" color-interpolation-filters="sRGB">
<feFlood flood-opacity="0" result="BackgroundImageFix"/>
<feBlend mode="normal" in="SourceGraphic" in2="BackgroundImageFix" result="shape"/>
<feColorMatrix in="SourceAlpha" type="matrix" values="0 0 0 0 0 0 0 0 0 0 0 0 0 0 0 0 0 0 127 0" result="hardAlpha"/>
<feOffset dy="4"/>
<feGaussianBlur stdDeviation="2"/>
<feComposite in2="hardAlpha" operator="arithmetic" k2="-1" k3="1"/>
<feColorMatrix type="matrix" values="0 0 0 0 0 0 0 0 0 0 0 0 0 0 0 0 0 0 0.25 0"/>
<feBlend mode="normal" in2="shape" result="effect1_innerShadow"/>
</filter>
<filter id="filter1_i" x="96.1295" y="5.11731" width="107.268" height="39.3324" filterUnits="userSpaceOnUse" color-interpolation-filters="sRGB">
<feFlood flood-opacity="0" result="BackgroundImageFix"/>
<feBlend mode="normal" in="SourceGraphic" in2="BackgroundImageFix" result="shape"/>
<feColorMatrix in="SourceAlpha" type="matrix" values="0 0 0 0 0 0 0 0 0 0 0 0 0 0 0 0 0 0 127 0" result="hardAlpha"/>
<feOffset dy="4"/>
<feGaussianBlur stdDeviation="2"/>
<feComposite in2="hardAlpha" operator="arithmetic" k2="-1" k3="1"/>
<feColorMatrix type="matrix" values="0 0 0 0 0 0 0 0 0 0 0 0 0 0 0 0 0 0 0.25 0"/>
<feBlend mode="normal" in2="shape" result="effect1_innerShadow"/>
</filter>
</defs>
</svg>
