<svg width="30" height="30" viewBox="0 0 30 30" fill="none" xmlns="http://www.w3.org/2000/svg">
<path d="M30 27.0575L22.1815 19.3013C23.652 17.295 24.5214 14.8275 24.5214 12.1625C24.5214 5.45625 19.0214 0 12.2601 0C5.50002 0 0 5.45625 0 12.1625C0 18.87 5.50002 24.325 12.2601 24.325C14.823 24.325 17.2032 23.5412 19.1738 22.2025L27.0339 30L30 27.0575ZM3.59612 12.1625C3.59612 7.4225 7.4833 3.56625 12.2613 3.56625C17.0394 3.56625 20.9265 7.4225 20.9265 12.1625C20.9265 16.9025 17.0394 20.7588 12.2613 20.7588C7.48204 20.7588 3.59612 16.9025 3.59612 12.1625Z" fill="#363636"/>
</svg>
