<svg width="24" height="24" viewBox="0 0 24 24" fill="none" xmlns="http://www.w3.org/2000/svg">
<g clip-path="url(#clip0)">
<path d="M21.406 9.558C20.196 9.507 18.536 9.28 17.429 8.814C18.238 5.531 18.682 0 15.233 0C13.372 0 12.882 1.668 12.4 3.329C10.852 8.665 8.454 10.145 6 10.73V10H0V22H6V21.096C8.378 21.324 10.119 21.96 12.169 22.842C13.426 23.383 15.222 24 17.505 24C20.043 24 21.8 23.003 22.514 20.314C23.014 18.437 24 13.064 24 12.064C24 10.416 22.832 9.618 21.406 9.558ZM4 20H2V12H4V20ZM19.896 14.417C19.896 14.417 20.097 14.427 20.965 14.39C22.047 14.344 22.016 15.859 20.969 15.953L19.208 16.052C18.474 16.146 18.552 17.255 19.349 17.224C19.349 17.224 20.035 17.207 20.492 17.183C21.56 17.127 21.508 18.612 20.532 18.734C20.108 18.787 18.787 18.849 18.787 18.849C17.976 18.921 18.081 20.084 18.896 19.99L19.667 19.959C20.489 19.885 20.67 20.784 19.375 21.62C17.808 22.501 14.69 21.751 12.959 21.006C10.72 20.041 8.521 19.072 6 19V13C9.264 12.251 12.328 10.746 14.321 3.887C15.219 0.795 16 1.956 16 4.461C16 6.532 15.51 8.247 15.079 9.994C16.14 10.537 18.45 11.396 21.199 11.55C22.254 11.609 22.223 13.005 21.148 13.134L19.754 13.301C19.754 13.301 19.146 14.412 19.896 14.417Z" fill="#00246B"/>
</g>
<defs>
<clipPath id="clip0">
<rect width="24" height="24" fill="white"/>
</clipPath>
</defs>
</svg>
