<svg width="223" height="99" viewBox="0 0 223 99" fill="none" xmlns="http://www.w3.org/2000/svg">
<path d="M113.894 57.2899C113.894 59.6574 113.469 61.492 112.621 62.7938C111.804 64.0498 110.672 64.6779 109.229 64.6779C107.455 64.6779 106.187 63.772 105.423 61.9602C104.513 63.3533 103.513 64.0498 102.42 64.0498C100.96 64.0498 99.7381 63.2581 98.7522 61.6747C97.7053 59.9924 97.1818 57.7733 97.1818 55.0175C97.1818 51.2264 97.7436 49.3309 98.8665 49.3309C99.1646 49.3309 99.4283 49.4451 99.6575 49.6735C99.8868 49.8943 100.002 50.1569 100.002 50.4614C100.002 50.4081 99.9173 50.9029 99.7491 51.9458C99.5887 52.9888 99.5089 54.0774 99.5089 55.2116C99.5089 57.0843 99.814 58.6145 100.426 59.802C100.991 60.8983 101.671 61.4463 102.466 61.4463C103.024 61.4463 103.501 61.1342 103.898 60.51C104.304 59.8782 104.506 59.0598 104.506 58.0549C104.506 57.5144 104.452 56.776 104.345 55.8397C104.246 54.9033 104.197 54.241 104.197 53.8528C104.197 52.8251 104.621 52.3112 105.469 52.3112C106.333 52.3112 106.764 52.8632 106.764 53.967C106.764 54.1344 106.757 54.4237 106.741 54.8349C106.733 55.2459 106.729 55.5656 106.729 55.794C106.729 57.956 106.779 59.3224 106.879 59.8934C107.177 61.6138 107.91 62.4741 109.079 62.4741C109.844 62.4741 110.451 62.082 110.901 61.2979C111.36 60.5062 111.589 59.3948 111.589 57.9636C111.589 56.3421 111.418 54.7207 111.074 53.0992C110.73 51.47 110.558 50.6213 110.558 50.5528C110.558 49.9437 110.879 49.6392 111.52 49.6392C112.246 49.6392 112.82 50.2901 113.24 51.5919C113.675 52.9469 113.894 54.8462 113.894 57.2899ZM119.693 47.3897C119.693 48.4707 119.162 49.0112 118.1 49.0112C117.672 49.0112 117.309 48.8627 117.011 48.5659C116.721 48.269 116.575 47.9112 116.575 47.4925C116.575 47.0358 116.735 46.6475 117.057 46.3278C117.378 46.008 117.771 45.8481 118.237 45.8481C118.673 45.8481 119.024 45.989 119.292 46.2706C119.559 46.5524 119.693 46.9254 119.693 47.3897ZM119.2 51.7403C119.2 56.3307 119.036 59.7221 118.707 61.9145C118.577 62.7976 118.432 63.3913 118.271 63.6958C118.066 64.0993 117.733 64.301 117.275 64.301C116.969 64.301 116.709 64.2021 116.495 64.0041C116.281 63.7986 116.174 63.555 116.174 63.2733C116.174 63.3114 116.235 63.0488 116.357 62.4855C116.503 61.846 116.621 61.119 116.713 60.3045C116.835 59.1474 116.896 57.8532 116.896 56.422C116.896 55.7978 116.889 55.1393 116.873 54.4466C116.858 53.7538 116.85 53.377 116.85 53.3161C116.85 52.2884 116.938 51.5728 117.114 51.1694C117.297 50.7278 117.641 50.5071 118.145 50.5071C118.849 50.5071 119.2 50.9181 119.2 51.7403ZM132.209 54.0584C132.209 54.3248 132.125 54.5531 131.957 54.7435C131.789 54.9261 131.59 55.0175 131.361 55.0175C131.246 55.0175 130.807 54.8691 130.043 54.5722C129.286 54.2753 128.545 54.1268 127.819 54.1268C127.59 54.1268 127.349 54.1421 127.097 54.1725C126.814 55.4133 126.673 56.5515 126.673 57.5867C126.673 58.919 126.899 59.9429 127.349 60.6585C127.8 61.374 128.427 61.7318 129.229 61.7318C129.474 61.7318 129.795 61.6557 130.192 61.5034C130.597 61.3436 130.887 61.2636 131.063 61.2636C131.674 61.2636 131.98 61.6214 131.98 62.337C131.98 62.8014 131.728 63.1782 131.223 63.4675C130.719 63.7568 130.032 63.9014 129.16 63.9014C125.921 63.9014 124.3 61.7508 124.3 57.4497C124.3 56.5438 124.411 55.5466 124.633 54.458C124.419 54.4884 123.957 54.576 123.246 54.7207C122.78 54.812 122.436 54.8576 122.214 54.8576C121.396 54.8576 120.988 54.5456 120.988 53.9213C120.988 53.0687 122.398 52.513 125.217 52.2542C125.798 50.4195 126.509 49.5022 127.349 49.5022C127.609 49.5022 127.831 49.5974 128.014 49.7876C128.198 49.9704 128.289 50.1949 128.289 50.4614C128.289 50.6593 128.232 50.9106 128.117 51.215C128.003 51.512 127.888 51.8126 127.774 52.1171C130.73 52.2161 132.209 52.8632 132.209 54.0584ZM145.562 58.1805C145.562 60.3577 145.352 62.101 144.932 63.4104C144.535 64.6589 144.034 65.2831 143.43 65.2831C143.086 65.2831 142.796 65.1765 142.559 64.9633C142.323 64.7578 142.204 64.5218 142.204 64.2554C142.204 64.2554 142.384 63.5893 142.743 62.257C143.102 60.9173 143.281 59.5584 143.281 58.1805C143.281 56.1176 143.044 54.6178 142.571 53.6815C142.082 52.7147 141.287 52.2313 140.186 52.2313C139.606 52.2313 139.014 52.3722 138.41 52.6538C137.806 52.9355 137.34 53.2781 137.011 53.6815C136.607 54.1916 136.404 54.9643 136.404 55.9995V56.7304C136.404 58.6715 136.477 60.5556 136.622 62.3827C136.775 64.2021 136.851 65.0509 136.851 64.9291C136.851 65.6828 136.499 66.0596 135.797 66.0596C135.392 66.0596 135.105 65.9339 134.937 65.6828C134.792 65.4696 134.669 65.0395 134.57 64.3924C134.31 62.6187 134.18 60.2588 134.18 57.3127C134.18 54.732 134.467 51.7784 135.04 48.4517C135.17 47.7284 135.292 47.2565 135.407 47.0358C135.582 46.716 135.87 46.5561 136.266 46.5561C136.557 46.5561 136.801 46.6628 137 46.8759C137.199 47.089 137.298 47.3631 137.298 47.698C137.298 47.6828 137.104 48.9617 136.714 51.5348C137.722 50.5984 138.949 50.1302 140.393 50.1302C143.839 50.1302 145.562 52.8137 145.562 58.1805Z" fill="white"/>
<path d="M78.6259 41.3463C75.2476 46.9708 69.9774 52.7027 63.3989 52.4694C61.864 55.0835 60.2323 58.6789 58.4222 62.8482L53.546 64.8958C57.0248 56.2203 61.8379 46.5265 67.2902 38.9988C64.8 40.9576 60.8009 45.0602 57.3964 49.3036C53.3155 42.5349 56.2815 35.6367 61.0128 30.127C61.0909 32.5005 62.3471 34.5555 63.2466 35.5886C62.9232 33.6261 62.8228 30.0751 63.9713 26.8833C66.6398 24.1729 69.0408 22.1772 71.8246 20.3665C71.5161 22.1364 72.1219 24.1655 72.7983 25.406C72.8875 23.5916 73.6308 20.111 74.7347 18.5929C78.1689 15.901 83.402 13.509 89.2 13.0573C88.8988 16.6601 87.5795 22.5919 85.3941 26.402C83.4802 27.8979 80.8559 28.9199 78.7378 29.4864C80.5695 29.8159 82.5695 29.7715 84.2901 29.4827C83.2909 32.2339 82.2385 34.7702 80.5812 37.9101C78.0574 39.643 74.7162 40.6206 72.3932 40.965C74.1029 41.6573 77.1208 41.8721 78.6259 41.3463ZM27.1837 55.4353L29.581 58.3271L47.3206 47.9928L44.8379 45.1491L27.1837 55.4353ZM53.0517 54.5541L50.569 51.714L32.7103 62.1114L35.1076 65.0032L53.0517 54.5541ZM70.4419 54.58C68.8773 55.3317 67.2791 55.8426 65.6623 56.0536C65.2163 56.909 64.7481 57.8828 64.2612 58.9159L65.3687 60.1823C67.6842 62.7446 67.0746 66.4918 63.9713 68.4727C61.0982 70.313 44.1206 80.9728 40.2366 83.4135C39.9616 80.7436 38.9061 78.2624 37.1667 76.2003C35.4235 74.1379 14.4392 48.8889 9.20614 42.2165C7.46307 39.9948 7.0691 37.6065 8.10977 35.4923C9.10583 33.4594 11.2392 32.0932 13.4246 32.0932C16.8403 32.0932 18.6577 34.5184 19.1817 36.592C19.7763 38.9655 19.0516 41.1501 16.8662 42.8312L21.8057 48.8444L50.7809 32.382C56.066 28.4903 57.5526 21.307 54.2374 15.6714C51.9405 11.7724 47.6997 9.3545 43.169 9.3545C38.7536 9.3545 40.2218 9.29525 7.61917 25.9244C3.0328 28.1127 0 32.5412 0 37.7806C0 41.002 1.14473 44.2826 3.30412 46.9893C8.6078 53.632 31.4058 80.9993 31.6103 81.2659C32.9891 83.0908 33.1973 85.4091 32.1677 87.46C31.1382 89.5156 29.1498 90.7411 26.8566 90.7411C23.441 90.7411 21.6236 88.3159 21.0996 86.2385C20.5198 83.9093 21.1442 81.7656 23.3444 80.1145L18.5982 74.3934C15.5431 76.8557 13.8521 79.9329 13.4804 83.4353C12.6181 91.6001 19.1483 98.2206 26.9087 98.2206C29.1238 98.2206 31.7813 97.565 33.7511 96.3318L68.7881 74.3156C72.3449 71.857 74.3333 67.7211 74.3333 63.5888C74.3333 60.8302 73.4413 58.205 71.7763 56.1721L70.4419 54.58ZM40.9577 17.3228C41.6564 17.0007 42.4369 16.8267 43.2211 16.8267C45.1983 16.8267 46.9266 17.8672 47.8409 19.6111C49.0005 21.818 48.6809 25.0505 45.8042 26.6908L26.8604 37.3844C26.6708 33.3521 24.7084 29.679 21.4526 27.2684L40.9577 17.3228ZM48.7515 66.8768L50.0932 63.5258L51.0187 61.2709L38.1999 68.7393L40.5972 71.6312L48.7515 66.8768Z" fill="white"/>
<g filter="url(#filter0_i)">
<path d="M89.9825 98.2205H93.6013L95.8118 91.653H107.842L110.072 98.2205H113.691L104.262 70.1576H99.4111L89.9825 98.2205ZM96.9072 88.3985L101.798 73.8018L106.747 88.3985H96.9072ZM125.173 98.7857C127.808 98.7857 129.875 98.2073 131.374 97.0513C132.874 95.8952 133.624 94.2972 133.624 92.2572C133.624 91.1658 133.396 90.2499 132.939 89.5093C132.483 88.7555 131.714 88.1062 130.631 87.5605C129.562 87.0016 128.095 86.4887 126.23 86.0209C124.574 85.6054 123.309 85.2352 122.435 84.9101C121.574 84.5851 120.981 84.2413 120.655 83.8772C120.342 83.5132 120.185 83.0782 120.185 82.5715C120.185 81.6751 120.609 80.9602 121.457 80.4278C122.317 79.8954 123.432 79.6483 124.802 79.6873C126.237 79.7263 127.417 80.077 128.342 80.7396C129.269 81.389 129.817 82.273 129.986 83.39L133.546 82.7469C133.324 80.8893 132.411 79.4012 130.807 78.2841C129.216 77.1538 127.215 76.5887 124.802 76.5887C122.364 76.5887 120.4 77.1538 118.914 78.2841C117.427 79.4012 116.684 80.8893 116.684 82.7469C116.684 83.7471 116.906 84.5983 117.349 85.2999C117.806 86.0015 118.569 86.6188 119.638 87.1513C120.72 87.6837 122.194 88.1974 124.058 88.6908C125.78 89.1453 127.065 89.5421 127.912 89.8796C128.773 90.2047 129.34 90.5484 129.614 90.9125C129.888 91.2765 130.025 91.7567 130.025 92.3546C130.025 93.3812 129.608 94.1927 128.773 94.7906C127.951 95.3885 126.824 95.6871 125.389 95.6871C123.863 95.6871 122.585 95.3558 121.555 94.6932C120.525 94.0173 119.866 93.1084 119.579 91.9648L116.019 92.53C116.384 94.5045 117.368 96.0441 118.972 97.1487C120.59 98.24 122.657 98.7857 125.173 98.7857ZM137.919 98.2205H141.44V87.1318C141.44 84.6895 141.968 82.8771 143.024 81.6946C144.094 80.512 145.502 79.9211 147.25 79.9211C148.736 79.9211 149.897 80.2914 150.732 81.032C151.566 81.7725 152.146 82.7337 152.473 83.9162C152.811 85.0988 152.981 86.3522 152.981 87.6774V98.2205H156.502V86.5861C156.502 85.586 156.379 84.5141 156.131 83.3705C155.896 82.2145 155.465 81.1294 154.84 80.116C154.227 79.0894 153.372 78.2514 152.277 77.602C151.195 76.9525 149.799 76.6276 148.091 76.6276C145.013 76.6276 142.666 77.7125 141.049 79.8822V70.1576H137.919V98.2205ZM161.979 73.4511H165.461V69.8652H161.979V73.4511ZM161.979 98.2205H165.461V77.1733H161.979V98.2205ZM171.311 98.2205H174.852V88.0867L184.456 98.2205H189.327L178.901 87.6969L188.232 77.1733H183.713L174.852 87.3072V70.1576H171.331L171.311 98.2205ZM206.121 89.5093C207.334 89.5093 208.312 89.2108 209.055 88.6129C209.798 88.015 210.287 87.216 210.522 86.2158C210.757 85.2157 210.724 84.1049 210.424 82.8833H207.119C207.353 83.6761 207.347 84.3512 207.099 84.9101C206.864 85.469 206.44 85.7481 205.827 85.7481C205.28 85.7481 204.693 85.5789 204.067 85.2414C203.441 84.9039 202.776 84.5141 202.072 84.0721C201.367 83.6301 200.637 83.2404 199.881 82.9028C199.124 82.5653 198.335 82.3961 197.514 82.3961C196.327 82.3961 195.362 82.6885 194.619 83.2731C193.875 83.8577 193.38 84.6505 193.132 85.6507C192.897 86.6383 192.937 87.7421 193.249 88.9637H196.555C196.334 88.2488 196.321 87.6057 196.516 87.0343C196.725 86.4497 197.168 86.1574 197.846 86.1574C198.394 86.1574 198.981 86.3265 199.607 86.6641C200.233 87.0016 200.892 87.3913 201.583 87.8333C202.287 88.2753 203.017 88.6651 203.774 89.0026C204.53 89.3402 205.313 89.5093 206.121 89.5093Z" fill="white"/>
</g>
<g filter="url(#filter1_i)">
<path d="M122.814 18.2719C121.969 13.0959 119.34 10.4767 114.927 10.4143C113.3 10.4143 111.876 10.7885 110.655 11.5368C109.434 12.2852 108.417 13.283 107.603 14.5302C106.821 15.7775 106.226 17.1962 105.819 18.7864C105.444 20.3767 105.256 22.0137 105.256 23.6975C105.256 26.379 105.632 28.7644 106.383 30.8535C107.165 32.9115 108.292 34.5329 109.763 35.7178C111.234 36.9027 113.018 37.4951 115.115 37.4951C117.087 37.4951 119.043 36.9962 120.983 35.9984C122.924 34.9694 124.551 33.5507 125.866 31.7422L128.119 33.8001C126.586 35.8893 124.974 37.4795 123.284 38.5708C121.594 39.631 119.935 40.3482 118.307 40.7223C116.711 41.0965 115.271 41.2836 113.988 41.2836C111.578 41.2836 109.387 40.8627 107.416 40.0208C105.444 39.1477 103.738 37.9628 102.298 36.4661C100.89 34.9382 99.7944 33.1765 99.012 31.1809C98.2608 29.1542 97.8853 26.9715 97.8853 24.6329C97.8853 22.5126 98.2295 20.4079 98.9181 18.3187C99.6067 16.2296 100.624 14.3431 101.97 12.6593C103.347 10.9444 105.068 9.58801 107.134 8.59022C109.2 7.56124 111.594 7.04675 114.317 7.04675C115.537 7.04675 116.868 7.24943 118.307 7.65478C119.778 8.02895 121.156 8.59021 122.439 9.33856L122.251 7.37415H125.866V18.2719H122.814ZM141.992 41.2836C139.738 41.2836 137.704 40.8003 135.888 39.8337C134.073 38.8671 132.633 37.4951 131.569 35.7178C130.536 33.9093 130.02 31.789 130.02 29.3568C130.02 26.7688 130.552 24.5082 131.616 22.5749C132.712 20.6105 134.151 19.0982 135.935 18.0381C137.751 16.9467 139.722 16.4011 141.851 16.4011C144.104 16.4011 146.123 16.8844 147.907 17.851C149.691 18.8176 151.099 20.2052 152.132 22.0137C153.165 23.791 153.681 25.9269 153.681 28.4214C153.681 31.0406 153.181 33.3168 152.179 35.2501C151.178 37.1833 149.8 38.68 148.048 39.7401C146.295 40.7691 144.276 41.2836 141.992 41.2836ZM142.179 37.9628C143.431 37.9316 144.37 37.4951 144.996 36.6532C145.653 35.8113 146.107 34.7512 146.358 33.4727C146.608 32.1943 146.733 30.9003 146.733 29.5907C146.733 28.437 146.639 27.2677 146.452 26.0828C146.295 24.8979 146.029 23.8222 145.653 22.8556C145.278 21.889 144.761 21.1094 144.104 20.517C143.478 19.9245 142.696 19.6439 141.757 19.6751C140.536 19.7063 139.566 20.1428 138.846 20.9847C138.158 21.8266 137.657 22.8867 137.344 24.1652C137.062 25.4124 136.921 26.722 136.921 28.094C136.921 29.6842 137.093 31.2433 137.438 32.7712C137.782 34.299 138.33 35.5619 139.081 36.5597C139.863 37.5263 140.896 37.994 142.179 37.9628ZM166.141 41.2836C164.263 41.2836 162.605 40.8003 161.165 39.8337C159.756 38.8671 158.645 37.4951 157.832 35.7178C157.049 33.9404 156.658 31.8513 156.658 29.4504C156.658 26.9247 157.143 24.6797 158.113 22.7153C159.084 20.7508 160.445 19.2074 162.198 18.0849C163.95 16.9623 165.985 16.4011 168.301 16.4011C169.146 16.4011 169.897 16.4946 170.554 16.6817C171.243 16.8376 171.884 17.0247 172.479 17.243V14.156C172.479 13.7195 172.495 13.0959 172.526 12.2852C172.557 11.4745 172.604 10.7261 172.667 10.0401C172.166 10.0713 171.572 10.1025 170.883 10.1337C170.194 10.1649 169.678 10.1805 169.334 10.1805V6.62581C171.525 6.62581 173.199 6.4699 174.357 6.15809C175.515 5.84628 176.251 5.53447 176.564 5.22266H179.099V33.005C179.099 33.4416 179.083 34.0652 179.052 34.8759C179.02 35.6554 178.974 36.4038 178.911 37.1209C179.443 37.0586 180.006 37.0274 180.601 37.0274C181.196 36.9962 181.65 36.9806 181.963 36.9806V40.5353H173.043C173.011 40.1923 172.964 39.8337 172.902 39.4595C172.87 39.0853 172.823 38.7267 172.761 38.3838C171.728 39.4439 170.664 40.1923 169.568 40.6288C168.473 41.0653 167.331 41.2836 166.141 41.2836ZM168.583 37.0274C169.396 37.0274 170.147 36.8247 170.836 36.4193C171.525 35.9828 172.072 35.4371 172.479 34.7823V20.7508C172.166 20.5014 171.697 20.2987 171.071 20.1428C170.445 19.9557 169.803 19.8622 169.146 19.8622C167.706 19.8934 166.579 20.3455 165.766 21.2186C164.952 22.0916 164.373 23.1986 164.029 24.5393C163.716 25.8801 163.559 27.2833 163.559 28.7488C163.559 30.0584 163.716 31.3524 164.029 32.6308C164.373 33.9093 164.905 34.9694 165.625 35.8113C166.376 36.622 167.362 37.0274 168.583 37.0274ZM196.174 41.2836C193.889 41.2836 191.87 40.7847 190.117 39.7869C188.365 38.7579 187.003 37.3236 186.033 35.4839C185.063 33.613 184.578 31.4148 184.578 28.8891C184.578 26.7064 185.063 24.6641 186.033 22.762C187.003 20.86 188.365 19.3321 190.117 18.1784C191.901 16.9935 193.967 16.4011 196.314 16.4011C197.629 16.4011 198.912 16.5882 200.164 16.9623C201.416 17.3053 202.543 17.9134 203.544 18.7864C204.577 19.6595 205.391 20.8444 205.986 22.3411C206.611 23.8378 206.909 25.7086 206.877 27.9537L191.479 28.2343C191.479 29.9181 191.682 31.4304 192.089 32.7712C192.527 34.1119 193.231 35.1721 194.202 35.9516C195.172 36.7312 196.471 37.1209 198.098 37.1209C199.037 37.1209 200.148 36.8715 201.432 36.3726C202.746 35.8425 203.935 34.9227 205 33.613L207.112 35.5775C205.986 37.1677 204.781 38.3838 203.497 39.2256C202.214 40.0364 200.931 40.582 199.648 40.8627C198.396 41.1433 197.238 41.2836 196.174 41.2836ZM191.76 24.9603H200.399C200.367 23.0271 199.992 21.6707 199.272 20.8912C198.552 20.0804 197.645 19.6751 196.549 19.6751C195.172 19.6751 194.092 20.174 193.31 21.1718C192.527 22.1384 192.011 23.4012 191.76 24.9603Z" fill="white"/>
</g>
<defs>
<filter id="filter0_i" x="89.9825" y="69.8652" width="120.694" height="32.9205" filterUnits="userSpaceOnUse" color-interpolation-filters="sRGB">
<feFlood flood-opacity="0" result="BackgroundImageFix"/>
<feBlend mode="normal" in="SourceGraphic" in2="BackgroundImageFix" result="shape"/>
<feColorMatrix in="SourceAlpha" type="matrix" values="0 0 0 0 0 0 0 0 0 0 0 0 0 0 0 0 0 0 127 0" result="hardAlpha"/>
<feOffset dy="4"/>
<feGaussianBlur stdDeviation="2"/>
<feComposite in2="hardAlpha" operator="arithmetic" k2="-1" k3="1"/>
<feColorMatrix type="matrix" values="0 0 0 0 0 0 0 0 0 0 0 0 0 0 0 0 0 0 0.25 0"/>
<feBlend mode="normal" in2="shape" result="effect1_innerShadow"/>
</filter>
<filter id="filter1_i" x="97.8853" y="5.22266" width="109.227" height="40.0609" filterUnits="userSpaceOnUse" color-interpolation-filters="sRGB">
<feFlood flood-opacity="0" result="BackgroundImageFix"/>
<feBlend mode="normal" in="SourceGraphic" in2="BackgroundImageFix" result="shape"/>
<feColorMatrix in="SourceAlpha" type="matrix" values="0 0 0 0 0 0 0 0 0 0 0 0 0 0 0 0 0 0 127 0" result="hardAlpha"/>
<feOffset dy="4"/>
<feGaussianBlur stdDeviation="2"/>
<feComposite in2="hardAlpha" operator="arithmetic" k2="-1" k3="1"/>
<feColorMatrix type="matrix" values="0 0 0 0 0 0 0 0 0 0 0 0 0 0 0 0 0 0 0.25 0"/>
<feBlend mode="normal" in2="shape" result="effect1_innerShadow"/>
</filter>
</defs>
</svg>
