<svg width="45" height="45" viewBox="0 0 45 45" fill="none" xmlns="http://www.w3.org/2000/svg">
<path d="M43 10.0251C41.4915 10.7085 39.8703 11.1687 38.1688 11.3761C39.9062 10.3145 41.2404 8.63228 41.8674 6.62756C40.2428 7.61075 38.4422 8.32547 36.5254 8.71073C34.993 7.04245 32.8047 6 30.3857 6C24.9549 6 20.9642 11.1704 22.1908 16.5378C15.202 16.1805 9.00417 12.7637 4.85463 7.57065C2.65088 11.4284 3.71175 16.4751 7.45642 19.0307C6.0795 18.9853 4.78117 18.6001 3.64854 17.9568C3.55629 21.9331 6.34942 25.6532 10.3948 26.4812C9.21088 26.809 7.91425 26.8857 6.59542 26.6277C7.66483 30.0374 10.7706 32.518 14.4538 32.5878C10.9175 35.417 6.46217 36.6809 2 36.144C5.72246 38.5793 10.1453 40 14.8945 40C30.5121 40 39.3356 26.5405 38.8026 14.4686C40.446 13.2571 41.8725 11.7457 43 10.0251Z" fill="white"/>
</svg>
